<?xml version="1.0" encoding="UTF-8"?>
<svg id="Layer_1" data-name="Layer 1" xmlns="http://www.w3.org/2000/svg" viewBox="0 0 329.69 387.73">
  <defs>
    <style>
      .cls-1 {
        fill: #594a42;
        stroke-width: 0px;
      }
    </style>
  </defs>
  <path class="cls-1" d="M163.86,283.61c-.6-1.68-1.39-3.32-1.78-5.06-2.99-13.32-9.54-24.77-17.68-35.59-6.21-8.26-12.53-16.63-17.29-25.74-13.32-25.51-11.74-51.05,2.44-75.78,6.95-12.12,15.33-23.46,21.79-35.81,4.57-8.74,7.01-18.59,10.38-27.95.38-1.05.45-2.23.95-3.21.35-.68,1.24-1.58,1.81-1.52.82.09,1.67.84,2.3,1.51.38.4.43,1.15.55,1.76,3.65,18.81,13.02,34.95,23.63,50.51,7.98,11.7,15.45,23.68,18.41,37.8,3.99,19.02,2.23,37.38-8.01,54.19-6.4,10.5-13.49,20.6-20.69,30.57-6.61,9.16-11.11,19.12-13.72,30.05-.37,1.53-1.24,2.95-1.87,4.41l-1.19-.14Z"/>
  <path class="cls-1" d="M162.97,352.31c-34.5.35-68.22-8.58-98.51-28.8-30.61-20.44-51.41-48.37-61.94-83.78-1.36-4.57-.77-7.56,1.74-8.23,4.23-1.14,5.37,2.19,6.65,5,11.94,26.17,32.06,44.53,56.41,58.72,34.62,20.16,72.36,26.36,111.82,24.17,31.44-1.74,60.98-10.13,87.92-26.68,22.41-13.77,40.23-31.9,51.3-56.11.26-.57.55-1.12.82-1.68,1.13-2.37,2.51-4.65,5.61-3.59,3.32,1.14,3.66,3.96,2.62,6.78-3.14,8.52-5.95,17.24-9.9,25.38-3.85,7.92-8.54,15.51-13.58,22.75-16.97,24.37-39.91,41.27-67.17,52.56-23.05,9.55-47.12,13.69-73.79,13.51Z"/>
  <path class="cls-1" d="M30.49,68.12c1.36,2.14,2.17,2.91,2.31,3.79.12.73-.47,1.63-.88,2.38-28.77,52.73-10.01,114.51,43.04,143.65,10.61,5.83,21.79,10.64,32.22,16.74,18.15,10.62,31.81,25.3,37.68,46.06,1,3.53,1.22,7.37,1.26,11.07.03,2.31-1.66,4.17-3.95,2.1-14.17-12.83-32.02-17.42-49.68-22.43-22.89-6.49-43.38-17.11-59.81-34.69-16.17-17.31-26.91-37.44-30.86-60.9-4.32-25.67-.81-50.48,9.04-74.46,4.29-10.44,9.82-20.19,16.9-29.03.85-1.06,1.48-2.31,2.72-4.27Z"/>
  <path class="cls-1" d="M329.69,155.16c.07,21.39-6.51,43.87-19.87,64.69-18.28,28.48-44.95,44.22-76.74,52.82-13.88,3.75-27.69,7.76-39.58,16.35-1.92,1.39-3.73,2.92-5.63,4.34-2.73,2.05-4.51,1.4-4.69-2.01-.14-2.7.14-5.51.74-8.16,4.82-21.21,18.11-36.16,36.12-47.11,9.47-5.76,19.68-10.28,29.54-15.41,29.48-15.35,50.29-38.07,58.49-70.79,6.38-25.47,2.68-50.05-9.03-73.48-.39-.78-1.04-1.52-1.16-2.33-.19-1.32-.04-2.69-.03-4.05,1.24.62,2.87.93,3.65,1.91,7.81,9.87,13.71,20.84,18.28,32.54,5.96,15.27,9.1,31.12,9.9,50.7Z"/>
  <path class="cls-1" d="M311.48,378.5c-2.81.73-5.58,1.88-8.42,2.12-21.75,1.9-43.49,4.35-65.28,5.24-31.33,1.28-62.71,2.17-94.05,1.77-30.96-.4-61.91-2.42-92.84-4.12-9.18-.5-18.28-2.32-27.42-3.53-.25-.03-.55.02-.74-.1-1.35-.88-2.69-1.8-4.03-2.7,1.29-.83,2.5-2.14,3.89-2.4,5.27-.95,10.58-1.89,15.92-2.24,23.18-1.52,46.36-3.49,69.56-4.08,32.09-.81,64.22-.85,96.32-.61,18.48.14,36.97,1.21,55.43,2.34,14.69.9,29.35,2.45,44.01,3.91,2.65.26,5.2,1.52,7.8,2.33-.05.69-.1,1.38-.15,2.07Z"/>
  <path class="cls-1" d="M165.33,0c21.14.5,41.17,4.81,59.59,15.46,2.58,1.49,5.03,3.26,7.42,5.05,2.07,1.56,3.28,3.6,1.54,6.11-1.68,2.43-3.88,1.72-5.97.58-11.25-6.16-23.17-10.57-35.78-12.83-31.42-5.63-61.61-2-90.19,12.73-2.35,1.21-4.52,1.9-6.21-.69-1.81-2.78-.15-4.84,2.03-6.3,14.43-9.7,30.36-15.58,47.49-18.13,6.65-.99,13.39-1.33,20.09-1.97Z"/>
</svg>